<mxfile host="app.diagrams.net" modified="2022-12-13T05:59:35.172Z" agent="5.0 (Windows NT 10.0; Win64; x64) AppleWebKit/537.36 (KHTML, like Gecko) Chrome/108.0.0.0 Safari/537.36" etag="-3tHViPeC2PH0xxw4zMs" version="20.5.1" type="github" pages="5">
  <diagram id="Vtn5G-_pchSSVlMc73Zc" name="Class Diagram">
    <mxGraphModel dx="1038" dy="571" grid="1" gridSize="10" guides="1" tooltips="1" connect="1" arrows="1" fold="1" page="1" pageScale="1" pageWidth="850" pageHeight="1100" math="0" shadow="0">
      <root>
        <mxCell id="0" />
        <mxCell id="1" parent="0" />
        <mxCell id="CzrgszOOE3CoNMD14HGt-1" value="Event" style="swimlane;fontStyle=1;align=center;verticalAlign=top;childLayout=stackLayout;horizontal=1;startSize=26;horizontalStack=0;resizeParent=1;resizeParentMax=0;resizeLast=0;collapsible=1;marginBottom=0;" vertex="1" parent="1">
          <mxGeometry x="50" y="30" width="160" height="242" as="geometry" />
        </mxCell>
        <mxCell id="CzrgszOOE3CoNMD14HGt-2" value="# eventName: String" style="text;strokeColor=none;fillColor=none;align=left;verticalAlign=top;spacingLeft=4;spacingRight=4;overflow=hidden;rotatable=0;points=[[0,0.5],[1,0.5]];portConstraint=eastwest;" vertex="1" parent="CzrgszOOE3CoNMD14HGt-1">
          <mxGeometry y="26" width="160" height="26" as="geometry" />
        </mxCell>
        <mxCell id="CzrgszOOE3CoNMD14HGt-6" value="# Location: String" style="text;strokeColor=none;fillColor=none;align=left;verticalAlign=top;spacingLeft=4;spacingRight=4;overflow=hidden;rotatable=0;points=[[0,0.5],[1,0.5]];portConstraint=eastwest;" vertex="1" parent="CzrgszOOE3CoNMD14HGt-1">
          <mxGeometry y="52" width="160" height="26" as="geometry" />
        </mxCell>
        <mxCell id="CzrgszOOE3CoNMD14HGt-7" value="# Email: String" style="text;strokeColor=none;fillColor=none;align=left;verticalAlign=top;spacingLeft=4;spacingRight=4;overflow=hidden;rotatable=0;points=[[0,0.5],[1,0.5]];portConstraint=eastwest;" vertex="1" parent="CzrgszOOE3CoNMD14HGt-1">
          <mxGeometry y="78" width="160" height="26" as="geometry" />
        </mxCell>
        <mxCell id="CzrgszOOE3CoNMD14HGt-8" value="# EventDetails: String" style="text;strokeColor=none;fillColor=none;align=left;verticalAlign=top;spacingLeft=4;spacingRight=4;overflow=hidden;rotatable=0;points=[[0,0.5],[1,0.5]];portConstraint=eastwest;" vertex="1" parent="CzrgszOOE3CoNMD14HGt-1">
          <mxGeometry y="104" width="160" height="26" as="geometry" />
        </mxCell>
        <mxCell id="CzrgszOOE3CoNMD14HGt-9" value="# reservationNumber: int" style="text;strokeColor=none;fillColor=none;align=left;verticalAlign=top;spacingLeft=4;spacingRight=4;overflow=hidden;rotatable=0;points=[[0,0.5],[1,0.5]];portConstraint=eastwest;" vertex="1" parent="CzrgszOOE3CoNMD14HGt-1">
          <mxGeometry y="130" width="160" height="26" as="geometry" />
        </mxCell>
        <mxCell id="CzrgszOOE3CoNMD14HGt-11" value="# phoneNumber: int" style="text;strokeColor=none;fillColor=none;align=left;verticalAlign=top;spacingLeft=4;spacingRight=4;overflow=hidden;rotatable=0;points=[[0,0.5],[1,0.5]];portConstraint=eastwest;" vertex="1" parent="CzrgszOOE3CoNMD14HGt-1">
          <mxGeometry y="156" width="160" height="26" as="geometry" />
        </mxCell>
        <mxCell id="CzrgszOOE3CoNMD14HGt-12" value="# password: String" style="text;strokeColor=none;fillColor=none;align=left;verticalAlign=top;spacingLeft=4;spacingRight=4;overflow=hidden;rotatable=0;points=[[0,0.5],[1,0.5]];portConstraint=eastwest;" vertex="1" parent="CzrgszOOE3CoNMD14HGt-1">
          <mxGeometry y="182" width="160" height="26" as="geometry" />
        </mxCell>
        <mxCell id="CzrgszOOE3CoNMD14HGt-3" value="" style="line;strokeWidth=1;fillColor=none;align=left;verticalAlign=middle;spacingTop=-1;spacingLeft=3;spacingRight=3;rotatable=0;labelPosition=right;points=[];portConstraint=eastwest;strokeColor=inherit;" vertex="1" parent="CzrgszOOE3CoNMD14HGt-1">
          <mxGeometry y="208" width="160" height="8" as="geometry" />
        </mxCell>
        <mxCell id="CzrgszOOE3CoNMD14HGt-4" value=" " style="text;strokeColor=none;fillColor=none;align=left;verticalAlign=top;spacingLeft=4;spacingRight=4;overflow=hidden;rotatable=0;points=[[0,0.5],[1,0.5]];portConstraint=eastwest;" vertex="1" parent="CzrgszOOE3CoNMD14HGt-1">
          <mxGeometry y="216" width="160" height="26" as="geometry" />
        </mxCell>
        <mxCell id="CzrgszOOE3CoNMD14HGt-13" value="Database" style="swimlane;fontStyle=1;align=center;verticalAlign=top;childLayout=stackLayout;horizontal=1;startSize=26;horizontalStack=0;resizeParent=1;resizeParentMax=0;resizeLast=0;collapsible=1;marginBottom=0;" vertex="1" parent="1">
          <mxGeometry x="710" y="30" width="270" height="320" as="geometry" />
        </mxCell>
        <mxCell id="CzrgszOOE3CoNMD14HGt-14" value="+ Con: Connection" style="text;strokeColor=none;fillColor=none;align=left;verticalAlign=top;spacingLeft=4;spacingRight=4;overflow=hidden;rotatable=0;points=[[0,0.5],[1,0.5]];portConstraint=eastwest;" vertex="1" parent="CzrgszOOE3CoNMD14HGt-13">
          <mxGeometry y="26" width="270" height="26" as="geometry" />
        </mxCell>
        <mxCell id="CzrgszOOE3CoNMD14HGt-17" value="- ps: PreparedStatement" style="text;strokeColor=none;fillColor=none;align=left;verticalAlign=top;spacingLeft=4;spacingRight=4;overflow=hidden;rotatable=0;points=[[0,0.5],[1,0.5]];portConstraint=eastwest;" vertex="1" parent="CzrgszOOE3CoNMD14HGt-13">
          <mxGeometry y="52" width="270" height="26" as="geometry" />
        </mxCell>
        <mxCell id="CzrgszOOE3CoNMD14HGt-15" value="" style="line;strokeWidth=1;fillColor=none;align=left;verticalAlign=middle;spacingTop=-1;spacingLeft=3;spacingRight=3;rotatable=0;labelPosition=right;points=[];portConstraint=eastwest;strokeColor=inherit;" vertex="1" parent="CzrgszOOE3CoNMD14HGt-13">
          <mxGeometry y="78" width="270" height="8" as="geometry" />
        </mxCell>
        <mxCell id="CzrgszOOE3CoNMD14HGt-16" value="+ Connect(): void" style="text;strokeColor=none;fillColor=none;align=left;verticalAlign=top;spacingLeft=4;spacingRight=4;overflow=hidden;rotatable=0;points=[[0,0.5],[1,0.5]];portConstraint=eastwest;" vertex="1" parent="CzrgszOOE3CoNMD14HGt-13">
          <mxGeometry y="86" width="270" height="26" as="geometry" />
        </mxCell>
        <mxCell id="CzrgszOOE3CoNMD14HGt-19" value="+ Create(): void" style="text;strokeColor=none;fillColor=none;align=left;verticalAlign=top;spacingLeft=4;spacingRight=4;overflow=hidden;rotatable=0;points=[[0,0.5],[1,0.5]];portConstraint=eastwest;" vertex="1" parent="CzrgszOOE3CoNMD14HGt-13">
          <mxGeometry y="112" width="270" height="26" as="geometry" />
        </mxCell>
        <mxCell id="CzrgszOOE3CoNMD14HGt-21" value="+ insertUser(User): void" style="text;strokeColor=none;fillColor=none;align=left;verticalAlign=top;spacingLeft=4;spacingRight=4;overflow=hidden;rotatable=0;points=[[0,0.5],[1,0.5]];portConstraint=eastwest;" vertex="1" parent="CzrgszOOE3CoNMD14HGt-13">
          <mxGeometry y="138" width="270" height="26" as="geometry" />
        </mxCell>
        <mxCell id="CzrgszOOE3CoNMD14HGt-22" value="+ insertEvent(Event): void" style="text;strokeColor=none;fillColor=none;align=left;verticalAlign=top;spacingLeft=4;spacingRight=4;overflow=hidden;rotatable=0;points=[[0,0.5],[1,0.5]];portConstraint=eastwest;" vertex="1" parent="CzrgszOOE3CoNMD14HGt-13">
          <mxGeometry y="164" width="270" height="26" as="geometry" />
        </mxCell>
        <mxCell id="CzrgszOOE3CoNMD14HGt-23" value="+ Login(string): ResultSet" style="text;strokeColor=none;fillColor=none;align=left;verticalAlign=top;spacingLeft=4;spacingRight=4;overflow=hidden;rotatable=0;points=[[0,0.5],[1,0.5]];portConstraint=eastwest;" vertex="1" parent="CzrgszOOE3CoNMD14HGt-13">
          <mxGeometry y="190" width="270" height="26" as="geometry" />
        </mxCell>
        <mxCell id="CzrgszOOE3CoNMD14HGt-24" value="+ getEvents(String): ResultSet" style="text;strokeColor=none;fillColor=none;align=left;verticalAlign=top;spacingLeft=4;spacingRight=4;overflow=hidden;rotatable=0;points=[[0,0.5],[1,0.5]];portConstraint=eastwest;" vertex="1" parent="CzrgszOOE3CoNMD14HGt-13">
          <mxGeometry y="216" width="270" height="26" as="geometry" />
        </mxCell>
        <mxCell id="CzrgszOOE3CoNMD14HGt-26" value="+ sendEvents(String,String): ResultSet" style="text;strokeColor=none;fillColor=none;align=left;verticalAlign=top;spacingLeft=4;spacingRight=4;overflow=hidden;rotatable=0;points=[[0,0.5],[1,0.5]];portConstraint=eastwest;" vertex="1" parent="CzrgszOOE3CoNMD14HGt-13">
          <mxGeometry y="242" width="270" height="26" as="geometry" />
        </mxCell>
        <mxCell id="CzrgszOOE3CoNMD14HGt-27" value="+ update(String, String): void" style="text;strokeColor=none;fillColor=none;align=left;verticalAlign=top;spacingLeft=4;spacingRight=4;overflow=hidden;rotatable=0;points=[[0,0.5],[1,0.5]];portConstraint=eastwest;" vertex="1" parent="CzrgszOOE3CoNMD14HGt-13">
          <mxGeometry y="268" width="270" height="26" as="geometry" />
        </mxCell>
        <mxCell id="CzrgszOOE3CoNMD14HGt-28" value="+ addPriceData(String, String, String)::void " style="text;strokeColor=none;fillColor=none;align=left;verticalAlign=top;spacingLeft=4;spacingRight=4;overflow=hidden;rotatable=0;points=[[0,0.5],[1,0.5]];portConstraint=eastwest;" vertex="1" parent="CzrgszOOE3CoNMD14HGt-13">
          <mxGeometry y="294" width="270" height="26" as="geometry" />
        </mxCell>
        <mxCell id="CzrgszOOE3CoNMD14HGt-29" value="User" style="swimlane;fontStyle=1;align=center;verticalAlign=top;childLayout=stackLayout;horizontal=1;startSize=26;horizontalStack=0;resizeParent=1;resizeParentMax=0;resizeLast=0;collapsible=1;marginBottom=0;" vertex="1" parent="1">
          <mxGeometry x="330" y="430" width="160" height="242" as="geometry" />
        </mxCell>
        <mxCell id="CzrgszOOE3CoNMD14HGt-30" value="# name: String" style="text;strokeColor=none;fillColor=none;align=left;verticalAlign=top;spacingLeft=4;spacingRight=4;overflow=hidden;rotatable=0;points=[[0,0.5],[1,0.5]];portConstraint=eastwest;" vertex="1" parent="CzrgszOOE3CoNMD14HGt-29">
          <mxGeometry y="26" width="160" height="26" as="geometry" />
        </mxCell>
        <mxCell id="CzrgszOOE3CoNMD14HGt-33" value="# password: String" style="text;strokeColor=none;fillColor=none;align=left;verticalAlign=top;spacingLeft=4;spacingRight=4;overflow=hidden;rotatable=0;points=[[0,0.5],[1,0.5]];portConstraint=eastwest;" vertex="1" parent="CzrgszOOE3CoNMD14HGt-29">
          <mxGeometry y="52" width="160" height="26" as="geometry" />
        </mxCell>
        <mxCell id="CzrgszOOE3CoNMD14HGt-34" value="# email: String" style="text;strokeColor=none;fillColor=none;align=left;verticalAlign=top;spacingLeft=4;spacingRight=4;overflow=hidden;rotatable=0;points=[[0,0.5],[1,0.5]];portConstraint=eastwest;" vertex="1" parent="CzrgszOOE3CoNMD14HGt-29">
          <mxGeometry y="78" width="160" height="26" as="geometry" />
        </mxCell>
        <mxCell id="CzrgszOOE3CoNMD14HGt-35" value="# role: String" style="text;strokeColor=none;fillColor=none;align=left;verticalAlign=top;spacingLeft=4;spacingRight=4;overflow=hidden;rotatable=0;points=[[0,0.5],[1,0.5]];portConstraint=eastwest;" vertex="1" parent="CzrgszOOE3CoNMD14HGt-29">
          <mxGeometry y="104" width="160" height="26" as="geometry" />
        </mxCell>
        <mxCell id="CzrgszOOE3CoNMD14HGt-36" value="# gender: String" style="text;strokeColor=none;fillColor=none;align=left;verticalAlign=top;spacingLeft=4;spacingRight=4;overflow=hidden;rotatable=0;points=[[0,0.5],[1,0.5]];portConstraint=eastwest;" vertex="1" parent="CzrgszOOE3CoNMD14HGt-29">
          <mxGeometry y="130" width="160" height="26" as="geometry" />
        </mxCell>
        <mxCell id="CzrgszOOE3CoNMD14HGt-37" value="# username: String" style="text;strokeColor=none;fillColor=none;align=left;verticalAlign=top;spacingLeft=4;spacingRight=4;overflow=hidden;rotatable=0;points=[[0,0.5],[1,0.5]];portConstraint=eastwest;" vertex="1" parent="CzrgszOOE3CoNMD14HGt-29">
          <mxGeometry y="156" width="160" height="26" as="geometry" />
        </mxCell>
        <mxCell id="CzrgszOOE3CoNMD14HGt-38" value="# phoneNo: int" style="text;strokeColor=none;fillColor=none;align=left;verticalAlign=top;spacingLeft=4;spacingRight=4;overflow=hidden;rotatable=0;points=[[0,0.5],[1,0.5]];portConstraint=eastwest;" vertex="1" parent="CzrgszOOE3CoNMD14HGt-29">
          <mxGeometry y="182" width="160" height="26" as="geometry" />
        </mxCell>
        <mxCell id="CzrgszOOE3CoNMD14HGt-31" value="" style="line;strokeWidth=1;fillColor=none;align=left;verticalAlign=middle;spacingTop=-1;spacingLeft=3;spacingRight=3;rotatable=0;labelPosition=right;points=[];portConstraint=eastwest;strokeColor=inherit;" vertex="1" parent="CzrgszOOE3CoNMD14HGt-29">
          <mxGeometry y="208" width="160" height="8" as="geometry" />
        </mxCell>
        <mxCell id="CzrgszOOE3CoNMD14HGt-32" value=" " style="text;strokeColor=none;fillColor=none;align=left;verticalAlign=top;spacingLeft=4;spacingRight=4;overflow=hidden;rotatable=0;points=[[0,0.5],[1,0.5]];portConstraint=eastwest;" vertex="1" parent="CzrgszOOE3CoNMD14HGt-29">
          <mxGeometry y="216" width="160" height="26" as="geometry" />
        </mxCell>
        <mxCell id="CzrgszOOE3CoNMD14HGt-39" value="Extends" style="endArrow=block;endSize=16;endFill=0;html=1;rounded=0;exitX=0.5;exitY=0;exitDx=0;exitDy=0;entryX=0.195;entryY=1.023;entryDx=0;entryDy=0;entryPerimeter=0;" edge="1" parent="1" source="CzrgszOOE3CoNMD14HGt-40" target="CzrgszOOE3CoNMD14HGt-32">
          <mxGeometry width="160" relative="1" as="geometry">
            <mxPoint x="185" y="670" as="sourcePoint" />
            <mxPoint x="345" y="670" as="targetPoint" />
          </mxGeometry>
        </mxCell>
        <mxCell id="CzrgszOOE3CoNMD14HGt-40" value="admin" style="swimlane;fontStyle=1;align=center;verticalAlign=top;childLayout=stackLayout;horizontal=1;startSize=26;horizontalStack=0;resizeParent=1;resizeParentMax=0;resizeLast=0;collapsible=1;marginBottom=0;" vertex="1" parent="1">
          <mxGeometry x="265" y="770" width="160" height="138" as="geometry" />
        </mxCell>
        <mxCell id="CzrgszOOE3CoNMD14HGt-41" value=" " style="text;strokeColor=none;fillColor=none;align=left;verticalAlign=top;spacingLeft=4;spacingRight=4;overflow=hidden;rotatable=0;points=[[0,0.5],[1,0.5]];portConstraint=eastwest;" vertex="1" parent="CzrgszOOE3CoNMD14HGt-40">
          <mxGeometry y="26" width="160" height="26" as="geometry" />
        </mxCell>
        <mxCell id="CzrgszOOE3CoNMD14HGt-42" value="" style="line;strokeWidth=1;fillColor=none;align=left;verticalAlign=middle;spacingTop=-1;spacingLeft=3;spacingRight=3;rotatable=0;labelPosition=right;points=[];portConstraint=eastwest;strokeColor=inherit;" vertex="1" parent="CzrgszOOE3CoNMD14HGt-40">
          <mxGeometry y="52" width="160" height="8" as="geometry" />
        </mxCell>
        <mxCell id="CzrgszOOE3CoNMD14HGt-43" value="+ inserUser(User): void" style="text;strokeColor=none;fillColor=none;align=left;verticalAlign=top;spacingLeft=4;spacingRight=4;overflow=hidden;rotatable=0;points=[[0,0.5],[1,0.5]];portConstraint=eastwest;" vertex="1" parent="CzrgszOOE3CoNMD14HGt-40">
          <mxGeometry y="60" width="160" height="26" as="geometry" />
        </mxCell>
        <mxCell id="CzrgszOOE3CoNMD14HGt-44" value="+ getEvents(): ResultSet" style="text;strokeColor=none;fillColor=none;align=left;verticalAlign=top;spacingLeft=4;spacingRight=4;overflow=hidden;rotatable=0;points=[[0,0.5],[1,0.5]];portConstraint=eastwest;" vertex="1" parent="CzrgszOOE3CoNMD14HGt-40">
          <mxGeometry y="86" width="160" height="26" as="geometry" />
        </mxCell>
        <mxCell id="CzrgszOOE3CoNMD14HGt-45" value="+ sendEvents(String): void" style="text;strokeColor=none;fillColor=none;align=left;verticalAlign=top;spacingLeft=4;spacingRight=4;overflow=hidden;rotatable=0;points=[[0,0.5],[1,0.5]];portConstraint=eastwest;" vertex="1" parent="CzrgszOOE3CoNMD14HGt-40">
          <mxGeometry y="112" width="160" height="26" as="geometry" />
        </mxCell>
        <mxCell id="CzrgszOOE3CoNMD14HGt-46" value="customer" style="swimlane;fontStyle=1;align=center;verticalAlign=top;childLayout=stackLayout;horizontal=1;startSize=26;horizontalStack=0;resizeParent=1;resizeParentMax=0;resizeLast=0;collapsible=1;marginBottom=0;" vertex="1" parent="1">
          <mxGeometry x="60" y="770" width="160" height="112" as="geometry" />
        </mxCell>
        <mxCell id="CzrgszOOE3CoNMD14HGt-47" value=" " style="text;strokeColor=none;fillColor=none;align=left;verticalAlign=top;spacingLeft=4;spacingRight=4;overflow=hidden;rotatable=0;points=[[0,0.5],[1,0.5]];portConstraint=eastwest;" vertex="1" parent="CzrgszOOE3CoNMD14HGt-46">
          <mxGeometry y="26" width="160" height="26" as="geometry" />
        </mxCell>
        <mxCell id="CzrgszOOE3CoNMD14HGt-48" value="" style="line;strokeWidth=1;fillColor=none;align=left;verticalAlign=middle;spacingTop=-1;spacingLeft=3;spacingRight=3;rotatable=0;labelPosition=right;points=[];portConstraint=eastwest;strokeColor=inherit;" vertex="1" parent="CzrgszOOE3CoNMD14HGt-46">
          <mxGeometry y="52" width="160" height="8" as="geometry" />
        </mxCell>
        <mxCell id="CzrgszOOE3CoNMD14HGt-49" value="+ insertEvent(Event): void" style="text;strokeColor=none;fillColor=none;align=left;verticalAlign=top;spacingLeft=4;spacingRight=4;overflow=hidden;rotatable=0;points=[[0,0.5],[1,0.5]];portConstraint=eastwest;" vertex="1" parent="CzrgszOOE3CoNMD14HGt-46">
          <mxGeometry y="60" width="160" height="26" as="geometry" />
        </mxCell>
        <mxCell id="CzrgszOOE3CoNMD14HGt-50" value="+ getEvents(): ResultSet" style="text;strokeColor=none;fillColor=none;align=left;verticalAlign=top;spacingLeft=4;spacingRight=4;overflow=hidden;rotatable=0;points=[[0,0.5],[1,0.5]];portConstraint=eastwest;" vertex="1" parent="CzrgszOOE3CoNMD14HGt-46">
          <mxGeometry y="86" width="160" height="26" as="geometry" />
        </mxCell>
        <mxCell id="CzrgszOOE3CoNMD14HGt-52" value="Extends" style="endArrow=block;endSize=16;endFill=0;html=1;rounded=0;exitX=0.5;exitY=0;exitDx=0;exitDy=0;entryX=0;entryY=0.5;entryDx=0;entryDy=0;" edge="1" parent="1" source="CzrgszOOE3CoNMD14HGt-46" target="CzrgszOOE3CoNMD14HGt-38">
          <mxGeometry width="160" relative="1" as="geometry">
            <mxPoint x="190" y="811" as="sourcePoint" />
            <mxPoint x="425" y="700" as="targetPoint" />
          </mxGeometry>
        </mxCell>
        <mxCell id="CzrgszOOE3CoNMD14HGt-54" value="sp" style="swimlane;fontStyle=1;align=center;verticalAlign=top;childLayout=stackLayout;horizontal=1;startSize=26;horizontalStack=0;resizeParent=1;resizeParentMax=0;resizeLast=0;collapsible=1;marginBottom=0;" vertex="1" parent="1">
          <mxGeometry x="450" y="770" width="160" height="112" as="geometry" />
        </mxCell>
        <mxCell id="CzrgszOOE3CoNMD14HGt-55" value=" " style="text;strokeColor=none;fillColor=none;align=left;verticalAlign=top;spacingLeft=4;spacingRight=4;overflow=hidden;rotatable=0;points=[[0,0.5],[1,0.5]];portConstraint=eastwest;" vertex="1" parent="CzrgszOOE3CoNMD14HGt-54">
          <mxGeometry y="26" width="160" height="26" as="geometry" />
        </mxCell>
        <mxCell id="CzrgszOOE3CoNMD14HGt-56" value="" style="line;strokeWidth=1;fillColor=none;align=left;verticalAlign=middle;spacingTop=-1;spacingLeft=3;spacingRight=3;rotatable=0;labelPosition=right;points=[];portConstraint=eastwest;strokeColor=inherit;" vertex="1" parent="CzrgszOOE3CoNMD14HGt-54">
          <mxGeometry y="52" width="160" height="8" as="geometry" />
        </mxCell>
        <mxCell id="CzrgszOOE3CoNMD14HGt-57" value="+ updateEvent(Event): void" style="text;strokeColor=none;fillColor=none;align=left;verticalAlign=top;spacingLeft=4;spacingRight=4;overflow=hidden;rotatable=0;points=[[0,0.5],[1,0.5]];portConstraint=eastwest;" vertex="1" parent="CzrgszOOE3CoNMD14HGt-54">
          <mxGeometry y="60" width="160" height="26" as="geometry" />
        </mxCell>
        <mxCell id="CzrgszOOE3CoNMD14HGt-58" value="+ getEvents(): ResultSet" style="text;strokeColor=none;fillColor=none;align=left;verticalAlign=top;spacingLeft=4;spacingRight=4;overflow=hidden;rotatable=0;points=[[0,0.5],[1,0.5]];portConstraint=eastwest;" vertex="1" parent="CzrgszOOE3CoNMD14HGt-54">
          <mxGeometry y="86" width="160" height="26" as="geometry" />
        </mxCell>
        <mxCell id="CzrgszOOE3CoNMD14HGt-60" value="Extends" style="endArrow=block;endSize=16;endFill=0;html=1;rounded=0;entryX=0.74;entryY=1.054;entryDx=0;entryDy=0;entryPerimeter=0;" edge="1" parent="1" source="CzrgszOOE3CoNMD14HGt-54" target="CzrgszOOE3CoNMD14HGt-32">
          <mxGeometry width="160" relative="1" as="geometry">
            <mxPoint x="508.32" y="770" as="sourcePoint" />
            <mxPoint x="551.6799999999998" y="676.6020000000001" as="targetPoint" />
          </mxGeometry>
        </mxCell>
        <mxCell id="CzrgszOOE3CoNMD14HGt-61" value="pm" style="swimlane;fontStyle=1;align=center;verticalAlign=top;childLayout=stackLayout;horizontal=1;startSize=26;horizontalStack=0;resizeParent=1;resizeParentMax=0;resizeLast=0;collapsible=1;marginBottom=0;" vertex="1" parent="1">
          <mxGeometry x="650" y="770" width="260" height="164" as="geometry" />
        </mxCell>
        <mxCell id="CzrgszOOE3CoNMD14HGt-62" value=" " style="text;strokeColor=none;fillColor=none;align=left;verticalAlign=top;spacingLeft=4;spacingRight=4;overflow=hidden;rotatable=0;points=[[0,0.5],[1,0.5]];portConstraint=eastwest;" vertex="1" parent="CzrgszOOE3CoNMD14HGt-61">
          <mxGeometry y="26" width="260" height="26" as="geometry" />
        </mxCell>
        <mxCell id="CzrgszOOE3CoNMD14HGt-63" value="" style="line;strokeWidth=1;fillColor=none;align=left;verticalAlign=middle;spacingTop=-1;spacingLeft=3;spacingRight=3;rotatable=0;labelPosition=right;points=[];portConstraint=eastwest;strokeColor=inherit;" vertex="1" parent="CzrgszOOE3CoNMD14HGt-61">
          <mxGeometry y="52" width="260" height="8" as="geometry" />
        </mxCell>
        <mxCell id="CzrgszOOE3CoNMD14HGt-64" value="+ getCustomerRequest(): ResultSet" style="text;strokeColor=none;fillColor=none;align=left;verticalAlign=top;spacingLeft=4;spacingRight=4;overflow=hidden;rotatable=0;points=[[0,0.5],[1,0.5]];portConstraint=eastwest;" vertex="1" parent="CzrgszOOE3CoNMD14HGt-61">
          <mxGeometry y="60" width="260" height="26" as="geometry" />
        </mxCell>
        <mxCell id="CzrgszOOE3CoNMD14HGt-65" value="+ getFinishedEvents(): ResultSet" style="text;strokeColor=none;fillColor=none;align=left;verticalAlign=top;spacingLeft=4;spacingRight=4;overflow=hidden;rotatable=0;points=[[0,0.5],[1,0.5]];portConstraint=eastwest;" vertex="1" parent="CzrgszOOE3CoNMD14HGt-61">
          <mxGeometry y="86" width="260" height="26" as="geometry" />
        </mxCell>
        <mxCell id="CzrgszOOE3CoNMD14HGt-66" value="+ sendEventsToSp(): void" style="text;strokeColor=none;fillColor=none;align=left;verticalAlign=top;spacingLeft=4;spacingRight=4;overflow=hidden;rotatable=0;points=[[0,0.5],[1,0.5]];portConstraint=eastwest;" vertex="1" parent="CzrgszOOE3CoNMD14HGt-61">
          <mxGeometry y="112" width="260" height="26" as="geometry" />
        </mxCell>
        <mxCell id="CzrgszOOE3CoNMD14HGt-67" value="+ sendEventsToCustomer(): void" style="text;strokeColor=none;fillColor=none;align=left;verticalAlign=top;spacingLeft=4;spacingRight=4;overflow=hidden;rotatable=0;points=[[0,0.5],[1,0.5]];portConstraint=eastwest;" vertex="1" parent="CzrgszOOE3CoNMD14HGt-61">
          <mxGeometry y="138" width="260" height="26" as="geometry" />
        </mxCell>
        <mxCell id="CzrgszOOE3CoNMD14HGt-68" value="Extends" style="endArrow=block;endSize=16;endFill=0;html=1;rounded=0;entryX=1;entryY=0.5;entryDx=0;entryDy=0;" edge="1" parent="1" target="CzrgszOOE3CoNMD14HGt-32">
          <mxGeometry width="160" relative="1" as="geometry">
            <mxPoint x="701.6542609242707" y="768.6" as="sourcePoint" />
            <mxPoint x="650.0000000000001" y="672.004" as="targetPoint" />
          </mxGeometry>
        </mxCell>
        <mxCell id="CzrgszOOE3CoNMD14HGt-69" value="" style="endArrow=diamondThin;endFill=1;endSize=24;html=1;rounded=0;entryX=0.313;entryY=0.923;entryDx=0;entryDy=0;entryPerimeter=0;" edge="1" parent="1" target="CzrgszOOE3CoNMD14HGt-4">
          <mxGeometry width="160" relative="1" as="geometry">
            <mxPoint x="90" y="770" as="sourcePoint" />
            <mxPoint x="130" y="350" as="targetPoint" />
          </mxGeometry>
        </mxCell>
      </root>
    </mxGraphModel>
  </diagram>
  <diagram id="OUzSdygvevOtMaO-0fCE" name="Use Case Diagram">
    <mxGraphModel dx="1162" dy="666" grid="1" gridSize="10" guides="1" tooltips="1" connect="1" arrows="1" fold="1" page="1" pageScale="1" pageWidth="850" pageHeight="1100" math="0" shadow="0">
      <root>
        <mxCell id="0" />
        <mxCell id="1" parent="0" />
      </root>
    </mxGraphModel>
  </diagram>
  <diagram id="J6cBSV93oAquH2zWUHKy" name="Data Flow Digram">
    <mxGraphModel dx="1038" dy="571" grid="1" gridSize="10" guides="1" tooltips="1" connect="1" arrows="1" fold="1" page="1" pageScale="1" pageWidth="850" pageHeight="1100" math="0" shadow="0">
      <root>
        <mxCell id="0" />
        <mxCell id="1" parent="0" />
      </root>
    </mxGraphModel>
  </diagram>
  <diagram id="cd52qMpDn6HdAMI3OQ1F" name="Activity Diagram">
    <mxGraphModel dx="1162" dy="666" grid="1" gridSize="10" guides="1" tooltips="1" connect="1" arrows="1" fold="1" page="1" pageScale="1" pageWidth="850" pageHeight="1100" math="0" shadow="0">
      <root>
        <mxCell id="0" />
        <mxCell id="1" parent="0" />
      </root>
    </mxGraphModel>
  </diagram>
  <diagram id="sgsFIoFZvXre8XjpmdV7" name="Sequence Diagram">
    <mxGraphModel dx="1038" dy="571" grid="1" gridSize="10" guides="1" tooltips="1" connect="1" arrows="1" fold="1" page="1" pageScale="1" pageWidth="850" pageHeight="1100" math="0" shadow="0">
      <root>
        <mxCell id="0" />
        <mxCell id="1" parent="0" />
        <mxCell id="o1lLgLXBd402ZWYYPLum-1" value="Actor" style="shape=umlActor;verticalLabelPosition=bottom;verticalAlign=top;html=1;" parent="1" vertex="1">
          <mxGeometry x="121.25" y="40" width="60" height="140" as="geometry" />
        </mxCell>
        <mxCell id="o1lLgLXBd402ZWYYPLum-2" value="customer:Customer" style="html=1;" parent="1" vertex="1">
          <mxGeometry x="515" y="100" width="200" height="110" as="geometry" />
        </mxCell>
        <mxCell id="o1lLgLXBd402ZWYYPLum-5" value="" style="endArrow=none;dashed=1;html=1;rounded=0;startArrow=none;exitX=0.415;exitY=-0.004;exitDx=0;exitDy=0;exitPerimeter=0;" parent="1" source="o1lLgLXBd402ZWYYPLum-9" edge="1">
          <mxGeometry width="50" height="50" relative="1" as="geometry">
            <mxPoint x="159.5" y="450" as="sourcePoint" />
            <mxPoint x="150" y="200" as="targetPoint" />
            <Array as="points" />
          </mxGeometry>
        </mxCell>
        <mxCell id="o1lLgLXBd402ZWYYPLum-7" value="" style="endArrow=none;dashed=1;html=1;rounded=0;startArrow=none;" parent="1" source="o1lLgLXBd402ZWYYPLum-11" edge="1">
          <mxGeometry width="50" height="50" relative="1" as="geometry">
            <mxPoint x="600" y="440" as="sourcePoint" />
            <mxPoint x="620" y="210" as="targetPoint" />
          </mxGeometry>
        </mxCell>
        <mxCell id="o1lLgLXBd402ZWYYPLum-9" value="" style="html=1;points=[];perimeter=orthogonalPerimeter;" parent="1" vertex="1">
          <mxGeometry x="140" y="250" width="22.5" height="340" as="geometry" />
        </mxCell>
        <mxCell id="o1lLgLXBd402ZWYYPLum-41" style="edgeStyle=orthogonalEdgeStyle;rounded=0;orthogonalLoop=1;jettySize=auto;html=1;fontSize=12;exitX=1.167;exitY=0.501;exitDx=0;exitDy=0;exitPerimeter=0;" parent="1" edge="1">
          <mxGeometry relative="1" as="geometry">
            <mxPoint x="631.3399999999999" y="375.25" as="sourcePoint" />
            <mxPoint x="638" y="440" as="targetPoint" />
            <Array as="points">
              <mxPoint x="680" y="375" />
              <mxPoint x="680" y="440" />
            </Array>
          </mxGeometry>
        </mxCell>
        <mxCell id="o1lLgLXBd402ZWYYPLum-11" value="" style="html=1;points=[];perimeter=orthogonalPerimeter;" parent="1" vertex="1">
          <mxGeometry x="610" y="250" width="20" height="340" as="geometry" />
        </mxCell>
        <mxCell id="o1lLgLXBd402ZWYYPLum-13" value="" style="html=1;verticalAlign=bottom;endArrow=block;rounded=0;" parent="1" edge="1">
          <mxGeometry x="0.1128" y="20" width="80" relative="1" as="geometry">
            <mxPoint x="585" y="280" as="sourcePoint" />
            <mxPoint x="611" y="280" as="targetPoint" />
            <Array as="points">
              <mxPoint x="165" y="280" />
            </Array>
            <mxPoint as="offset" />
          </mxGeometry>
        </mxCell>
        <mxCell id="o1lLgLXBd402ZWYYPLum-14" value="Create instance" style="text;html=1;align=center;verticalAlign=middle;resizable=0;points=[];autosize=1;strokeColor=none;fillColor=none;" parent="1" vertex="1">
          <mxGeometry x="330" y="250" width="110" height="30" as="geometry" />
        </mxCell>
        <mxCell id="o1lLgLXBd402ZWYYPLum-15" value="" style="html=1;verticalAlign=bottom;endArrow=block;rounded=0;" parent="1" edge="1">
          <mxGeometry x="-0.0824" y="-10" width="80" relative="1" as="geometry">
            <mxPoint x="610" y="320" as="sourcePoint" />
            <mxPoint x="163" y="320" as="targetPoint" />
            <mxPoint as="offset" />
          </mxGeometry>
        </mxCell>
        <mxCell id="o1lLgLXBd402ZWYYPLum-17" value="New instance" style="text;html=1;align=center;verticalAlign=middle;resizable=0;points=[];autosize=1;strokeColor=none;fillColor=none;fontSize=12;" parent="1" vertex="1">
          <mxGeometry x="335" y="290" width="100" height="30" as="geometry" />
        </mxCell>
        <mxCell id="o1lLgLXBd402ZWYYPLum-19" value="login(username,password):" style="text;html=1;align=center;verticalAlign=middle;resizable=0;points=[];autosize=1;strokeColor=none;fillColor=none;fontSize=12;" parent="1" vertex="1">
          <mxGeometry x="300" y="330" width="170" height="30" as="geometry" />
        </mxCell>
        <mxCell id="o1lLgLXBd402ZWYYPLum-23" value="" style="html=1;points=[];perimeter=orthogonalPerimeter;fontSize=12;" parent="1" vertex="1">
          <mxGeometry x="620" y="410" width="20" height="80" as="geometry" />
        </mxCell>
        <mxCell id="o1lLgLXBd402ZWYYPLum-42" value="verify" style="text;html=1;align=center;verticalAlign=middle;resizable=0;points=[];autosize=1;strokeColor=none;fillColor=none;fontSize=12;" parent="1" vertex="1">
          <mxGeometry x="680" y="390" width="50" height="30" as="geometry" />
        </mxCell>
        <mxCell id="o1lLgLXBd402ZWYYPLum-46" value="" style="endArrow=none;dashed=1;html=1;rounded=0;fontSize=12;entryX=0.504;entryY=1.006;entryDx=0;entryDy=0;entryPerimeter=0;" parent="1" target="o1lLgLXBd402ZWYYPLum-9" edge="1">
          <mxGeometry width="50" height="50" relative="1" as="geometry">
            <mxPoint x="151" y="660" as="sourcePoint" />
            <mxPoint x="150" y="570" as="targetPoint" />
          </mxGeometry>
        </mxCell>
        <mxCell id="o1lLgLXBd402ZWYYPLum-48" value="" style="endArrow=none;dashed=1;html=1;rounded=0;fontSize=12;entryX=1.003;entryY=0.625;entryDx=0;entryDy=0;entryPerimeter=0;exitX=-0.002;exitY=0.632;exitDx=0;exitDy=0;exitPerimeter=0;" parent="1" source="o1lLgLXBd402ZWYYPLum-44" target="o1lLgLXBd402ZWYYPLum-44" edge="1">
          <mxGeometry width="50" height="50" relative="1" as="geometry">
            <mxPoint x="30" y="520" as="sourcePoint" />
            <mxPoint x="620" y="520" as="targetPoint" />
          </mxGeometry>
        </mxCell>
        <mxCell id="o1lLgLXBd402ZWYYPLum-50" value="" style="endArrow=none;dashed=1;html=1;rounded=0;fontSize=12;entryX=0.922;entryY=1.014;entryDx=0;entryDy=0;entryPerimeter=0;" parent="1" target="o1lLgLXBd402ZWYYPLum-44" edge="1">
          <mxGeometry width="50" height="50" relative="1" as="geometry">
            <mxPoint x="621" y="650" as="sourcePoint" />
            <mxPoint x="621" y="600" as="targetPoint" />
            <Array as="points" />
          </mxGeometry>
        </mxCell>
        <mxCell id="o1lLgLXBd402ZWYYPLum-44" value="alternative" style="shape=umlFrame;whiteSpace=wrap;html=1;fontSize=12;" parent="1" vertex="1">
          <mxGeometry x="40" y="400" width="630" height="190" as="geometry" />
        </mxCell>
        <mxCell id="o1lLgLXBd402ZWYYPLum-53" value="" style="html=1;verticalAlign=bottom;endArrow=block;rounded=0;fontSize=12;" parent="1" edge="1">
          <mxGeometry width="80" relative="1" as="geometry">
            <mxPoint x="165" y="370" as="sourcePoint" />
            <mxPoint x="610" y="370" as="targetPoint" />
            <Array as="points">
              <mxPoint x="375" y="370" />
            </Array>
          </mxGeometry>
        </mxCell>
        <mxCell id="o1lLgLXBd402ZWYYPLum-55" value="[has an account]" style="text;html=1;align=center;verticalAlign=middle;resizable=0;points=[];autosize=1;strokeColor=none;fillColor=none;fontSize=12;" parent="1" vertex="1">
          <mxGeometry x="30" y="440" width="110" height="30" as="geometry" />
        </mxCell>
        <mxCell id="o1lLgLXBd402ZWYYPLum-56" value="[else]" style="text;html=1;align=center;verticalAlign=middle;resizable=0;points=[];autosize=1;strokeColor=none;fillColor=none;fontSize=12;" parent="1" vertex="1">
          <mxGeometry x="35" y="530" width="50" height="30" as="geometry" />
        </mxCell>
        <mxCell id="o1lLgLXBd402ZWYYPLum-57" value="Display the main page" style="html=1;verticalAlign=bottom;endArrow=block;rounded=0;fontSize=12;exitX=0;exitY=0.618;exitDx=0;exitDy=0;exitPerimeter=0;entryX=1.067;entryY=0.62;entryDx=0;entryDy=0;entryPerimeter=0;" parent="1" source="o1lLgLXBd402ZWYYPLum-11" target="o1lLgLXBd402ZWYYPLum-9" edge="1">
          <mxGeometry width="80" relative="1" as="geometry">
            <mxPoint x="250" y="480" as="sourcePoint" />
            <mxPoint x="350" y="460" as="targetPoint" />
          </mxGeometry>
        </mxCell>
        <mxCell id="o1lLgLXBd402ZWYYPLum-59" value="display error message" style="html=1;verticalAlign=bottom;endArrow=block;rounded=0;fontSize=12;exitX=1.007;exitY=0.869;exitDx=0;exitDy=0;exitPerimeter=0;" parent="1" source="o1lLgLXBd402ZWYYPLum-9" edge="1">
          <mxGeometry width="80" relative="1" as="geometry">
            <mxPoint x="335" y="544.5" as="sourcePoint" />
            <mxPoint x="610" y="545" as="targetPoint" />
          </mxGeometry>
        </mxCell>
        <mxCell id="o1lLgLXBd402ZWYYPLum-63" value="customer:Customer" style="html=1;" parent="1" vertex="1">
          <mxGeometry x="515" y="100" width="200" height="110" as="geometry" />
        </mxCell>
        <mxCell id="o1lLgLXBd402ZWYYPLum-65" value="&lt;font style=&quot;font-size: 30px;&quot;&gt;Login&amp;nbsp;&lt;/font&gt;" style="text;html=1;align=center;verticalAlign=middle;resizable=0;points=[];autosize=1;strokeColor=none;fillColor=none;fontSize=12;" parent="1" vertex="1">
          <mxGeometry x="320" y="15" width="110" height="50" as="geometry" />
        </mxCell>
      </root>
    </mxGraphModel>
  </diagram>
</mxfile>
